<svg xmlns="http://www.w3.org/2000/svg" viewBox="0 0 917.82 917.82">
    <defs>
        <style>.cls-1{fill:#fff;}.cls-2{fill:#13a34a;}.cls-3{fill:none;stroke:#13a34a;stroke-miterlimit:10;stroke-width:23px;}</style>
    </defs>
    <g id="Logo_Name_White" data-name="Logo Name White">
        <path d="M549,710.07c-4.28,7.59-8.49,15.21-12.85,22.76-6.6,11.44-22,11.53-28.77.15-4.59-7.76-9-15.61-15.57-23v15.95c0,12.52-.07,25.05,0,37.57,0,4.56-.91,7.2-6.48,7.6-27.11,1.94-27.1,2.1-27.1-24.74,0-30.85.25-61.71-.15-92.55-.11-8.08,2.73-9.68,10.42-10.68,16.1-2.08,25.44,4,32,18.51,5.57,12.43,13.43,23.83,21,37,9.46-16.09,18.67-30.73,26.77-46,3.93-7.4,8.93-9.53,16.81-9.31,23.35.65,19.69-2.7,19.82,20,.2,32.68-.1,65.37.17,98,.06,7-1.79,10.45-9.26,9.63a93.9,93.9,0,0,0-10.07-.06c-14.66,0-14.67,0-14.67-15.16s0-30.19,0-45.28Z"/><path d="M324.2,689.6c0-12.82.19-25.66-.09-38.48-.11-5.44,1.71-7.83,7.32-7.72,32.4.66,25.61-4.74,26.22,24.55.37,18-.25,36,.3,54.06.48,15.67,10.22,23.56,25.24,21.6,11.44-1.5,17.84-9.54,18-23.69.25-21.68.57-43.39-.14-65-.32-9.61,3-11.91,12-11.62,25.43.81,21.15-2.72,21.43,21.35.21,17.41-.54,34.85.16,52.23,1.76,44.12-31.71,60.32-67,54.74-29.43-4.64-43.37-22.05-43.42-51.73C324.18,709.76,324.2,699.68,324.2,689.6Z"/><path d="M606.94,707.14c0-18,.21-36-.11-54-.12-6.8,1.59-10,9.16-9.86,17.67.42,35.38-.2,53,.23,29.65.71,45.22,16.58,44.64,44.8-.48,22.94-15,38.08-39.06,40.13a165.53,165.53,0,0,1-25.58.34c-7.66-.54-9.44,2.57-9,9.47.48,8.51,0,17.07.16,25.6.11,5-1.75,7.22-6.93,7.11-32-.65-25.67,4.87-26.26-24.5-.27-13.11-.05-26.23-.05-39.34Zm33.71-6.78c9.69,0,18.56.72,27.26-.21,7.74-.83,12.56-5.82,12.48-14.3s-5.25-13.08-13-13.79c-8.68-.8-17.48-.19-26.78-.19Z"/><path d="M234.54,728.63c0,12.46-.18,23.38.07,34.3.13,5.79-1.88,8.45-8,8.08a134.39,134.39,0,0,0-17.38,0c-6.62.47-8.37-2.6-8.34-8.67q.24-55.38,0-110.76c0-5.69,1.68-8.38,7.81-8.3,18.61.24,37.25-.41,55.83.3,17,.65,32.47,6,39.6,23,6.42,15.28,6.19,31.12-3.76,45.33-7.94,11.34-20.21,15.44-33.25,16.49C256.66,729.31,246,728.63,234.54,728.63Zm.33-28.29c9.77,0,18.6.62,27.31-.19,7.56-.71,12.07-6.06,12.4-13.64.35-7.75-4.15-13.31-11.6-14.13-9.2-1-18.59-.24-28.11-.24Z"/><path d="M768.13,737.61c-17.57.13-30.37-12.67-30.52-30.52-.13-15.74,13.08-28.84,29.2-29,17.58-.14,30.56,12.81,30.6,30.53C797.44,724.36,784.16,737.5,768.13,737.61Z"/><path d="M172.49,708.76a29,29,0,0,1-29.11,28.85c-17.62.1-30.22-12.64-30.29-30.62,0-15.75,13.23-28.88,29.24-28.89C160,678.08,172.46,690.73,172.49,708.76Z"/><path class="cls-1" d="M640.65,700.36V671.87c9.3,0,18.1-.61,26.78.19,7.71.71,12.89,5.18,13,13.79s-4.74,13.47-12.48,14.3C659.21,701.08,650.34,700.36,640.65,700.36Z"/><path class="cls-1" d="M234.87,700.34v-28.2c9.52,0,18.91-.76,28.11.24,7.45.82,11.95,6.38,11.6,14.13-.33,7.58-4.84,12.93-12.4,13.64C253.47,701,244.64,700.34,234.87,700.34Z"/><circle class="cls-2" cx="533.93" cy="505.9" r="11"/><circle class="cls-2" cx="321.77" cy="463.47" r="11"/><circle class="cls-2" cx="586.21" cy="344.9" r="11"/><circle class="cls-2" cx="327.8" cy="156.19" r="11"/><path class="cls-3" d="M534.18,506s159.2,46.68,246-13,41.58-199.53-78.64-168.79-179.17,213-466,240.16c-87,8.23-138.74-20.46-142.78-105.39s28.57-191.73,88.74-240.73c46.16-36.11,101.16-43.47,118,2.55C312.78,262,289.1,271.05,269.42,295c-3.45,4.19,1.91,9.94,6.32,6.78C301.82,283.08,347,261,384.87,290.37c12.06,9.36,22.51,28.33,23.95,43.53,3.83,40.46-22,83-87.45,77.18l.4,51.18"/>
        <path class="cls-3" d="M327.8,156.21S548.93,138.63,586.21,344.9"/>
    </g>
</svg>