{
    "asset": { "generator": "glTF-Transform v3.10.0", "version": "2.0" },
    "accessors": [
        {
            "type": "VEC3",
            "componentType": 5126,
            "count": 1426,
            "max": [6.961634635925293, 1.2208466529846191, 14.170169830322266],
            "min": [-7.021862030029297, -9.983766555786133, -3.4407756328582764],
            "bufferView": 0,
            "byteOffset": 0
        },
        { "type": "VEC3", "componentType": 5126, "count": 1426, "bufferView": 0, "byteOffset": 12 },
        { "type": "VEC2", "componentType": 5126, "count": 1426, "bufferView": 0, "byteOffset": 24 },
        {
            "type": "VEC3",
            "componentType": 5126,
            "count": 44365,
            "max": [1.042202353477478, 0.9975767135620117, 0.9872307181358337],
            "min": [-1.0694912672042847, -3.52546763420105, -0.9872304201126099],
            "bufferView": 1,
            "byteOffset": 0
        },
        { "type": "VEC3", "componentType": 5126, "count": 44365, "bufferView": 1, "byteOffset": 12 },
        { "type": "VEC2", "componentType": 5126, "count": 44365, "bufferView": 1, "byteOffset": 24 },
        {
            "type": "VEC3",
            "componentType": 5126,
            "count": 192,
            "max": [1, 1, 1],
            "min": [-1, -1, -1],
            "bufferView": 2,
            "byteOffset": 0
        },
        { "type": "VEC3", "componentType": 5126, "count": 192, "bufferView": 2, "byteOffset": 12 },
        { "type": "VEC2", "componentType": 5126, "count": 192, "bufferView": 2, "byteOffset": 24 },
        {
            "type": "VEC3",
            "componentType": 5126,
            "count": 192,
            "max": [1, 1, 1],
            "min": [-1, -1, -1],
            "bufferView": 3,
            "byteOffset": 0
        },
        { "type": "VEC3", "componentType": 5126, "count": 192, "bufferView": 3, "byteOffset": 12 },
        { "type": "VEC2", "componentType": 5126, "count": 192, "bufferView": 3, "byteOffset": 24 },
        { "type": "SCALAR", "componentType": 5123, "count": 5568, "bufferView": 4, "byteOffset": 0 },
        { "type": "SCALAR", "componentType": 5123, "count": 244638, "bufferView": 4, "byteOffset": 11136 },
        { "type": "SCALAR", "componentType": 5123, "count": 372, "bufferView": 4, "byteOffset": 500412 }
    ],
    "bufferViews": [
        { "buffer": 0, "byteOffset": 0, "byteLength": 45632, "byteStride": 32, "target": 34962 },
        { "buffer": 0, "byteOffset": 45632, "byteLength": 1419680, "byteStride": 32, "target": 34962 },
        { "buffer": 0, "byteOffset": 1465312, "byteLength": 6144, "byteStride": 32, "target": 34962 },
        { "buffer": 0, "byteOffset": 1471456, "byteLength": 6144, "byteStride": 32, "target": 34962 },
        { "buffer": 0, "byteOffset": 1477600, "byteLength": 501156, "target": 34963 }
    ],
    "samplers": [{ "magFilter": 9729, "minFilter": 9987, "wrapS": 10497, "wrapT": 10497 }],
    "textures": [
        { "source": 0, "sampler": 0 },
        { "source": 1, "sampler": 0 },
        { "source": 2, "sampler": 0 }
    ],
    "images": [
        { "name": "Material", "mimeType": "image/png", "uri": "baseColor_1.png" },
        { "name": "body color", "mimeType": "image/png", "uri": "baseColor_2.png" },
        { "name": "Material", "mimeType": "image/png", "uri": "baseColor_3.png" }
    ],
    "buffers": [{ "uri": "minibpump.bin", "byteLength": 1978756 }],
    "materials": [
        {
            "name": "Material.002",
            "doubleSided": true,
            "pbrMetallicRoughness": { "roughnessFactor": 0.5, "metallicFactor": 0, "baseColorTexture": { "index": 0 } }
        },
        {
            "name": "Material.001",
            "doubleSided": true,
            "pbrMetallicRoughness": { "roughnessFactor": 0.5, "metallicFactor": 0, "baseColorTexture": { "index": 1 } }
        },
        {
            "name": "Material.003",
            "doubleSided": true,
            "pbrMetallicRoughness": { "roughnessFactor": 0.5, "metallicFactor": 0, "baseColorTexture": { "index": 2 } }
        },
        {
            "name": "Material.004",
            "doubleSided": true,
            "pbrMetallicRoughness": { "roughnessFactor": 0.5, "metallicFactor": 0, "baseColorTexture": { "index": 2 } }
        }
    ],
    "meshes": [
        {
            "name": "Icosphere",
            "primitives": [
                {
                    "attributes": { "POSITION": 0, "NORMAL": 1, "TEXCOORD_0": 2 },
                    "mode": 4,
                    "material": 0,
                    "indices": 12
                }
            ]
        },
        {
            "name": "Sphere.001",
            "primitives": [
                {
                    "attributes": { "POSITION": 3, "NORMAL": 4, "TEXCOORD_0": 5 },
                    "mode": 4,
                    "material": 1,
                    "indices": 13
                }
            ]
        },
        {
            "name": "Cylinder.001",
            "primitives": [
                {
                    "attributes": { "POSITION": 6, "NORMAL": 7, "TEXCOORD_0": 8 },
                    "mode": 4,
                    "material": 2,
                    "indices": 14
                }
            ]
        },
        {
            "name": "Cylinder.003",
            "primitives": [
                {
                    "attributes": { "POSITION": 9, "NORMAL": 10, "TEXCOORD_0": 11 },
                    "mode": 4,
                    "material": 3,
                    "indices": 14
                }
            ]
        }
    ],
    "nodes": [
        {
            "name": "Icosphere",
            "translation": [0.1722014993429184, 34.07395935058594, -2.8862621784210205],
            "rotation": [0.07206494361162186, 0, 0, 0.9974000453948975],
            "scale": [1.1434314250946045, 1.1434314250946045, 1.1434314250946045],
            "mesh": 0
        },
        {
            "name": "Sphere.001",
            "translation": [0.07872956991195679, 26.37337875366211, 0.3263516426086426],
            "scale": [7.5113911628723145, 7.5113911628723145, 7.114482402801514],
            "mesh": 1
        },
        {
            "name": "Cylinder.001",
            "translation": [-5.176208972930908, 24.382553100585938, 4.695258617401123],
            "rotation": [0.6784316897392273, -0.06854594498872757, 0.29255858063697815, 0.6704038381576538],
            "scale": [0.5636918544769287, 0.5636918544769287, 0.5636918544769287],
            "mesh": 2
        },
        {
            "name": "Empty.001",
            "translation": [59.864990234375, -7.044475078582764, 2.6911494731903076],
            "rotation": [0.7071068286895752, 0, 0, 0.7071068286895752],
            "scale": [31.979705810546875, 31.979705810546875, 31.979705810546875]
        },
        {
            "name": "Cylinder.002",
            "translation": [4.906866073608398, 24.254663467407227, 4.967680931091309],
            "rotation": [0.7325139045715332, 0.28461480140686035, -0.09635084122419357, 0.6108472347259521],
            "scale": [0.5636918544769287, 0.5636918544769287, 0.5636918544769287],
            "mesh": 3
        }
    ],
    "scenes": [{ "name": "Scene", "nodes": [0, 1, 2, 3, 4] }],
    "scene": 0
}
